<svg width="180" height="18" viewBox="0 0 180 18" fill="none" xmlns="http://www.w3.org/2000/svg">
<path d="M12.1406 9.00781C11.9414 6.39453 9.91406 4.32031 6.63281 4.32031C3.02344 4.32031 0.679688 6.81641 0.679688 10.7891C0.679688 14.8203 3.02344 17.2461 6.65625 17.2461C9.77344 17.2461 11.918 15.418 12.1523 12.6406H9.39844C9.12891 14.0469 8.16797 14.8906 6.69141 14.8906C4.83984 14.8906 3.64453 13.3906 3.64453 10.7891C3.64453 8.23438 4.82812 6.6875 6.66797 6.6875C8.22656 6.6875 9.15234 7.68359 9.38672 9.00781H12.1406ZM18.4336 14.9961C17.168 14.9961 16.3242 14.3516 16.3242 13.332C16.3242 12.3477 17.1328 11.7148 18.5391 11.6211L21.4102 11.4453V12.3945C21.4102 13.8945 20.0859 14.9961 18.4336 14.9961ZM17.5547 17.1992C19.1484 17.1992 20.707 16.3672 21.4219 15.0195H21.4805V17H24.293V8.44531C24.293 5.94922 22.2891 4.32031 19.207 4.32031C16.043 4.32031 14.0625 5.98438 13.9336 8.30469H16.6406C16.8281 7.27344 17.707 6.60547 19.0898 6.60547C20.5312 6.60547 21.4102 7.35547 21.4102 8.65625V9.54688L18.1289 9.73438C15.1055 9.92188 13.4062 11.2461 13.4062 13.4492C13.4062 15.6875 15.1523 17.1992 17.5547 17.1992ZM26.6484 17H29.5664V9.76953C29.5664 8.02344 30.5625 6.95703 32.2148 6.95703C32.707 6.95703 33.1523 7.02734 33.3984 7.12109V4.48438C33.1875 4.4375 32.8594 4.36719 32.4844 4.36719C31.0195 4.36719 29.9297 5.23438 29.5078 6.74609H29.4492V4.57812H26.6484V17ZM35.707 1.67188V4.57812H33.9258V6.82812H35.707V13.6953C35.707 16.1094 36.7617 17.0586 39.4453 17.0586C40.0664 17.0586 40.6406 17.0117 40.957 16.9414V14.7148C40.7695 14.75 40.3945 14.7734 40.125 14.7734C39.0938 14.7734 38.625 14.3047 38.625 13.2852V6.82812H40.9688V4.57812H38.625V1.67188H35.707ZM48.082 6.58203C49.7578 6.58203 50.8828 7.8125 50.9414 9.57031H45.1406C45.2578 7.83594 46.4414 6.58203 48.082 6.58203ZM50.9531 13.2852C50.6367 14.3164 49.6055 14.9961 48.2461 14.9961C46.3359 14.9961 45.1172 13.6602 45.1172 11.668V11.4922H53.8008V10.543C53.8008 6.76953 51.5977 4.32031 48.0703 4.32031C44.4844 4.32031 42.2109 6.91016 42.2109 10.8359C42.2109 14.7969 44.4609 17.2461 48.1875 17.2461C51.1289 17.2461 53.3086 15.6289 53.6836 13.2852H50.9531ZM62.6367 17.1992C65.7773 17.1992 67.7578 14.7617 67.7578 10.7891C67.7578 6.81641 65.7656 4.36719 62.6367 4.36719C60.8789 4.36719 59.4609 5.25781 58.7578 6.71094H58.6875V0.0898438H55.7695V17H58.6289V14.8789H58.6875C59.4141 16.3203 60.8086 17.1992 62.6367 17.1992ZM61.7344 6.76953C63.5977 6.76953 64.7695 8.32812 64.7695 10.7891C64.7695 13.2617 63.6094 14.8086 61.7344 14.8086C59.9297 14.8086 58.6758 13.2266 58.6758 10.7891C58.6758 8.375 59.9297 6.76953 61.7344 6.76953ZM74.1914 14.9961C72.9258 14.9961 72.082 14.3516 72.082 13.332C72.082 12.3477 72.8906 11.7148 74.2969 11.6211L77.168 11.4453V12.3945C77.168 13.8945 75.8438 14.9961 74.1914 14.9961ZM73.3125 17.1992C74.9062 17.1992 76.4648 16.3672 77.1797 15.0195H77.2383V17H80.0508V8.44531C80.0508 5.94922 78.0469 4.32031 74.9648 4.32031C71.8008 4.32031 69.8203 5.98438 69.6914 8.30469H72.3984C72.5859 7.27344 73.4648 6.60547 74.8477 6.60547C76.2891 6.60547 77.168 7.35547 77.168 8.65625V9.54688L73.8867 9.73438C70.8633 9.92188 69.1641 11.2461 69.1641 13.4492C69.1641 15.6875 70.9102 17.1992 73.3125 17.1992ZM83.2148 1.67188V4.57812H81.4336V6.82812H83.2148V13.6953C83.2148 16.1094 84.2695 17.0586 86.9531 17.0586C87.5742 17.0586 88.1484 17.0117 88.4648 16.9414V14.7148C88.2773 14.75 87.9023 14.7734 87.6328 14.7734C86.6016 14.7734 86.1328 14.3047 86.1328 13.2852V6.82812H88.4766V4.57812H86.1328V1.67188H83.2148ZM95.5898 6.58203C97.2656 6.58203 98.3906 7.8125 98.4492 9.57031H92.6484C92.7656 7.83594 93.9492 6.58203 95.5898 6.58203ZM98.4609 13.2852C98.1445 14.3164 97.1133 14.9961 95.7539 14.9961C93.8438 14.9961 92.625 13.6602 92.625 11.668V11.4922H101.309V10.543C101.309 6.76953 99.1055 4.32031 95.5781 4.32031C91.9922 4.32031 89.7188 6.91016 89.7188 10.8359C89.7188 14.7969 91.9688 17.2461 95.6953 17.2461C98.6367 17.2461 100.816 15.6289 101.191 13.2852H98.4609ZM107.73 14.9961C106.465 14.9961 105.621 14.3516 105.621 13.332C105.621 12.3477 106.43 11.7148 107.836 11.6211L110.707 11.4453V12.3945C110.707 13.8945 109.383 14.9961 107.73 14.9961ZM106.852 17.1992C108.445 17.1992 110.004 16.3672 110.719 15.0195H110.777V17H113.59V8.44531C113.59 5.94922 111.586 4.32031 108.504 4.32031C105.34 4.32031 103.359 5.98438 103.23 8.30469H105.938C106.125 7.27344 107.004 6.60547 108.387 6.60547C109.828 6.60547 110.707 7.35547 110.707 8.65625V9.54688L107.426 9.73438C104.402 9.92188 102.703 11.2461 102.703 13.4492C102.703 15.6875 104.449 17.1992 106.852 17.1992ZM126.961 4.57812H124.043V11.7617C124.043 13.5664 123 14.7617 121.312 14.7617C119.672 14.7617 118.805 13.8008 118.805 12.0195V4.57812H115.887V12.6055C115.887 15.4766 117.598 17.2227 120.293 17.2227C122.18 17.2227 123.434 16.3555 124.09 14.8438H124.148V17H126.961V4.57812Z" fill="black"/>
<path d="M131.391 17.1289C132.328 17.1289 133.066 16.3906 133.066 15.4414C133.066 14.5039 132.328 13.7539 131.391 13.7539C130.441 13.7539 129.703 14.5039 129.703 15.4414C129.703 16.3906 130.441 17.1289 131.391 17.1289ZM146.18 9.00781C145.98 6.39453 143.953 4.32031 140.672 4.32031C137.062 4.32031 134.719 6.81641 134.719 10.7891C134.719 14.8203 137.062 17.2461 140.695 17.2461C143.812 17.2461 145.957 15.418 146.191 12.6406H143.438C143.168 14.0469 142.207 14.8906 140.73 14.8906C138.879 14.8906 137.684 13.3906 137.684 10.7891C137.684 8.23438 138.867 6.6875 140.707 6.6875C142.266 6.6875 143.191 7.68359 143.426 9.00781H146.18ZM153.434 17.2461C157.078 17.2461 159.445 14.8203 159.445 10.7891C159.445 6.76953 157.055 4.32031 153.434 4.32031C149.812 4.32031 147.422 6.78125 147.422 10.7891C147.422 14.8203 149.789 17.2461 153.434 17.2461ZM153.434 14.9375C151.582 14.9375 150.387 13.4375 150.387 10.7891C150.387 8.15234 151.594 6.64062 153.434 6.64062C155.285 6.64062 156.48 8.15234 156.48 10.7891C156.48 13.4375 155.285 14.9375 153.434 14.9375ZM161.32 17H164.238V9.39453C164.238 7.89453 165.223 6.80469 166.629 6.80469C167.988 6.80469 168.832 7.66016 168.832 9.04297V17H171.668V9.32422C171.668 7.83594 172.629 6.80469 174.035 6.80469C175.465 6.80469 176.262 7.67188 176.262 9.19531V17H179.18V8.48047C179.18 5.99609 177.574 4.34375 175.125 4.34375C173.332 4.34375 171.855 5.30469 171.258 6.83984H171.188C170.73 5.24609 169.477 4.34375 167.719 4.34375C166.031 4.34375 164.719 5.29297 164.18 6.73438H164.121V4.57812H161.32V17Z" fill="#9E9E9E"/>
</svg>
