<svg width="24" height="24" viewBox="0 0 24 24" fill="none" xmlns="http://www.w3.org/2000/svg">
<path d="M17.7542 13.9997C18.9962 13.9997 20.003 15.0065 20.003 16.2486V17.167C20.003 17.7404 19.8238 18.2994 19.4905 18.7659C17.9446 20.9292 15.4203 22.0008 12 22.0008C8.57903 22.0008 6.05607 20.9287 4.51391 18.7643C4.18195 18.2984 4.00354 17.7406 4.00354 17.1685V16.2486C4.00354 15.0065 5.0104 13.9997 6.25242 13.9997H17.7542ZM12 2.00439C14.7614 2.00439 17 4.24297 17 7.00439C17 9.76582 14.7614 12.0044 12 12.0044C9.23857 12.0044 7 9.76582 7 7.00439C7 4.24297 9.23857 2.00439 12 2.00439Z" fill="#212121"/>
</svg>
