<svg width="17" height="20" viewBox="0 0 17 20" fill="none" xmlns="http://www.w3.org/2000/svg">
<path d="M13.7542 11.9997C14.9962 11.9997 16.003 13.0065 16.003 14.2486V15.167C16.003 15.7404 15.8238 16.2994 15.4905 16.7659C13.9446 18.9292 11.4203 20.0008 8 20.0008C4.57903 20.0008 2.05607 18.9287 0.513908 16.7643C0.181945 16.2984 0.00354004 15.7406 0.00354004 15.1685V14.2486C0.00354004 13.0065 1.0104 11.9997 2.25242 11.9997H13.7542ZM8 0.00439453C10.7614 0.00439453 13 2.24297 13 5.00439C13 7.76582 10.7614 10.0044 8 10.0044C5.23857 10.0044 3 7.76582 3 5.00439C3 2.24297 5.23857 0.00439453 8 0.00439453Z" fill="#212121"/>
</svg>
