<svg width="49" height="113" viewBox="0 0 49 113" fill="none" xmlns="http://www.w3.org/2000/svg">
<path d="M19.7208 8.34282C20.8185 5.65157 20.7149 2.61594 19.447 0C16.886 0.264942 14.7299 2.04309 13.9592 4.5233C12.8572 7.23019 12.9542 10.2895 14.2155 12.9289C16.7941 12.6606 18.9668 10.8534 19.7208 8.34282Z" fill="#D1D1D1"/>
<path d="M10.9987 23.9293C12.0661 21.077 11.887 17.8927 10.5029 15.184C9.43408 12.5153 6.96736 10.6817 4.12875 10.4436C3.08238 13.3104 3.28695 16.4936 4.68648 19.2067C5.73421 21.8609 8.17777 23.6878 10.9987 23.9293Z" fill="#D1D1D1"/>
<path d="M12.2631 23.9534C14.3585 25.4686 17.1503 25.5747 19.3539 24.225C21.713 22.6489 23.1726 20.0107 23.2785 17.1537C21.1919 15.6664 18.439 15.5715 16.2497 16.8998C13.843 18.4367 12.3502 21.0741 12.2631 23.9534Z" fill="#D1D1D1"/>
<path d="M11.3379 43.2658C12.0693 40.0293 11.383 36.6233 9.46875 33.9237C7.97872 31.3542 5.15077 29.8829 2.22035 30.1521C1.49672 33.3908 2.17748 36.7868 4.08954 39.4942C5.60183 42.0447 8.4086 43.5013 11.3379 43.2658Z" fill="#D1D1D1"/>
<path d="M15.9761 34.3657C13.6369 36.4979 12.4439 39.619 12.7447 42.7874C15.2515 44.1497 18.3519 43.6922 20.3636 41.6526C22.7027 39.5204 23.8957 36.3993 23.5949 33.2308C21.0881 31.8686 17.9877 32.3261 15.9761 34.3657Z" fill="#D1D1D1"/>
<path d="M12.4498 62.4839C12.552 58.8636 11.0788 55.3675 8.42933 52.9314C6.25266 50.6308 2.89635 49.9395 0.00790811 51.1944C-0.121881 54.8236 1.35132 58.3198 4.02839 60.7469C6.20507 63.0475 9.56138 63.7388 12.4498 62.4839Z" fill="#D1D1D1"/>
<path d="M15.4272 51.6172C13.4328 54.6102 12.8584 58.3321 13.8459 61.7989C16.936 62.2446 19.9936 60.7755 21.5923 58.0587C23.5922 55.0757 24.171 51.3381 23.1737 47.8769C20.0757 47.3698 16.9862 48.8633 15.4272 51.6172Z" fill="#D1D1D1"/>
<path d="M12.3499 70.2425C9.85634 68.3252 6.44609 68.1858 3.80736 69.8934C4.05137 73.4436 5.88041 76.686 8.77358 78.7008C11.308 80.6213 14.7658 80.6812 17.3688 78.8618C17.0309 75.3779 15.201 72.2285 12.3499 70.2425Z" fill="#D1D1D1"/>
<path d="M18.6419 78.1446C21.7311 78.1158 24.5244 76.2748 25.7933 73.4209C27.4397 70.1758 27.6046 66.3617 26.2413 62.9818C23.0525 63.0668 20.2141 65.0388 19.0019 68.0189C17.4538 71.1824 17.3242 74.8708 18.6419 78.1446Z" fill="#D1D1D1"/>
<path d="M20.1822 87.4609C16.785 86.7664 13.3115 88.2855 11.4799 91.2657C12.6743 94.8005 15.6362 97.4363 19.2569 98.1693C22.6573 98.8224 26.103 97.3123 27.9592 94.3645C26.7549 90.8353 23.7985 88.2096 20.1822 87.4609Z" fill="#D1D1D1"/>
<path d="M28.9667 92.6885C32.2769 90.9448 34.4542 87.5978 34.7287 83.8406C35.4519 79.8565 34.4588 75.753 31.997 72.5576C28.7133 74.3258 26.5482 77.6593 26.235 81.4055C25.4786 85.3885 26.4751 89.5099 28.9667 92.6885Z" fill="#D1D1D1"/>
<path d="M32.5945 101.248C28.9062 100.487 25.1309 102.098 23.0873 105.297C24.4052 109.138 27.6242 111.991 31.5648 112.808C35.2664 113.581 39.0649 111.977 41.1341 108.777C39.7952 104.922 36.553 102.062 32.5945 101.248Z" fill="#D1D1D1"/>
<path d="M45.5455 84.9115C41.9015 86.8305 39.4926 90.5259 39.1922 94.6738C38.409 99.0809 39.5945 103.604 42.4218 107.048C46.0659 105.129 48.4748 101.433 48.7752 97.2854C49.5329 92.8795 48.3552 88.3588 45.5455 84.9115Z" fill="#D1D1D1"/>
</svg>
