<svg width="41" height="39" viewBox="0 0 41 39" fill="none" xmlns="http://www.w3.org/2000/svg">
<path d="M41 19.5002C41 17.4718 39.0724 16.2551 37.535 15.3425C37.0583 15.0764 36.5991 14.7779 36.1608 14.4509C36.3146 13.9015 36.5145 13.3654 36.7566 12.8483C37.4331 11.2267 38.294 9.21913 37.0852 7.57659C35.8764 5.93404 33.6625 6.09562 31.879 6.25914H31.8771C31.3102 6.29717 30.7413 6.29717 30.1763 6.25914C30.0322 5.89413 29.8477 5.14319 29.7247 4.65651C29.3346 2.9322 28.8234 0.783995 26.8343 0.154718C24.8452 -0.47456 23.2463 0.945572 21.9145 2.08051C21.4744 2.51396 21.0016 2.91507 20.5 3.27818C20.0023 2.94739 19.5295 2.58048 19.0855 2.18315C17.7537 1.04821 16.0933 -0.371919 14.1657 0.257359C12.2381 0.884738 11.6654 2.99304 11.2753 4.71734C11.1523 5.20402 10.9678 5.95497 10.8237 6.31998C10.2587 6.358 9.68979 6.358 9.12288 6.31998C7.33944 6.15839 5.14666 5.97588 3.9167 7.63742C2.68674 9.3009 3.56886 11.2875 4.24534 12.9091H4.24341C4.48556 13.4262 4.68543 13.9624 4.83916 14.5118C4.40099 14.8388 3.94168 15.1373 3.46504 15.4034C1.92759 16.2551 0 17.4718 0 19.5002C0 21.5287 1.92759 22.7454 3.46504 23.658C3.94165 23.9241 4.40095 24.2226 4.83916 24.5496C4.68541 25.099 4.48554 25.6351 4.24341 26.1522C3.56693 27.7738 2.70596 29.7814 3.91478 31.4239C5.12359 33.0665 7.33752 32.9049 9.12096 32.7414H9.12288C9.68979 32.7033 10.2587 32.7033 10.8237 32.7414C10.9678 33.1064 11.1523 33.8573 11.2753 34.344C11.6654 36.0683 12.1766 38.2165 14.1657 38.8458C16.1548 39.4751 17.7537 38.0549 19.0855 36.8173C19.5295 36.42 20.0023 36.0531 20.5 35.7223C20.9977 36.0531 21.4705 36.42 21.9145 36.8173C22.9561 37.9256 24.3551 38.6423 25.8715 38.8458C26.1982 38.8401 26.523 38.7849 26.8343 38.6842C28.8849 38.0549 29.3346 35.9067 29.7247 34.1824C29.8477 33.6957 30.0322 32.9448 30.1763 32.5798C30.7413 32.5398 31.3102 32.5398 31.8771 32.5798C33.6606 32.7414 35.8533 32.9239 37.0833 31.2623C38.3133 29.5988 37.4311 27.6122 36.7547 25.9906L36.7566 25.9887C36.5144 25.4716 36.3146 24.9374 36.1608 24.388C36.599 24.0591 37.0583 23.7625 37.535 23.4945C39.0724 22.7454 41 21.5287 41 19.5002ZM28.2488 15.6886L20.0484 25.8271C19.689 26.2796 19.1528 26.559 18.5724 26.597H18.4494C17.9055 26.6008 17.3809 26.3898 16.9946 26.0096L12.8954 21.9546C12.0902 21.158 12.0902 19.8691 12.8954 19.0744C13.6987 18.2798 15.0017 18.2798 15.805 19.0744L18.2861 21.5287L25.0509 13.1734C25.7812 12.4073 26.9843 12.3217 27.8164 12.9776C28.6505 13.6335 28.8387 14.8103 28.2488 15.6886Z" fill="#E17A25"/>
</svg>
