<svg width="34" height="39" viewBox="0 0 34 39" fill="none" xmlns="http://www.w3.org/2000/svg">
<path d="M8.5 10.9688C8.5 9.49053 9.38697 8.15752 10.7483 7.59098C12.1096 7.02446 13.6773 7.33867 14.7185 8.38366C15.7596 9.42862 16.0727 11.0021 15.5083 12.3684C14.9438 13.7348 13.6157 14.625 12.1429 14.625C10.1317 14.625 8.5 12.9873 8.5 10.9688ZM31.5714 39H2.42857C1.08624 39 0 37.9098 0 36.5625V2.4375C0 1.09023 1.08624 0 2.42857 0H31.5714C32.2165 0 32.8331 0.257083 33.2885 0.714126C33.7438 1.17117 34 1.79004 34 2.4375V36.5625C34 37.21 33.7439 37.8288 33.2885 38.2859C32.8331 38.7429 32.2165 39 31.5714 39ZM29.1429 4.875H4.85714V24.0277L9.14272 19.1098C9.59334 18.5933 10.2432 18.2958 10.9286 18.2958C11.614 18.2958 12.2638 18.5933 12.7144 19.1098L14.875 21.5902L21.2858 14.235C21.7364 13.7185 22.3863 13.4209 23.0717 13.4209C23.7571 13.4209 24.4069 13.7185 24.8575 14.235L29.1431 19.1528L29.1429 4.875Z" fill="#39A256"/>
</svg>
