<svg width="38" height="39" viewBox="0 0 38 39" fill="none" xmlns="http://www.w3.org/2000/svg">
<path d="M32.3295 4.79614C30.2736 3.02453 27.8839 1.7084 25.3083 0.931511C23.7304 0.437972 22.102 0.137855 20.4545 0.0388434C19.65 -0.0129478 18.8439 -0.0129478 18.0379 0.0388434C16.9826 0.0936841 15.9316 0.210978 14.8881 0.389203C12.6778 0.798978 10.5507 1.58955 8.59867 2.72899C5.97279 4.18984 3.7624 6.32704 2.18464 8.92865C0.122832 12.254 -0.513973 16.3029 0.421209 20.1249C1.17973 23.301 2.8927 26.1495 5.3198 28.267C8.35536 30.9952 12.1302 32.7106 16.138 33.1813C16.6175 33.2087 17.0643 33.4372 17.3716 33.8135C17.6803 34.1913 17.8228 34.6818 17.7649 35.1708C17.7649 35.8105 17.6239 36.4458 17.5482 37.081C17.431 37.5532 17.4057 38.0452 17.4725 38.5281C17.4785 38.6652 17.5408 38.7947 17.6447 38.8845C17.7471 38.9729 17.8822 39.014 18.0158 38.9957C18.4062 38.9439 18.7892 38.8419 19.1558 38.6911C20.7782 37.9203 22.316 36.9774 23.7454 35.876C26.9205 33.5743 29.9159 31.0256 32.7097 28.2518C33.6834 27.3363 34.5636 26.3218 35.34 25.2265C37.0485 22.7436 37.9777 19.7838 38 16.7448C38.0015 15.3952 37.8219 14.0532 37.4641 12.7555C36.575 9.63119 34.7863 6.85554 32.3295 4.79614ZM11.2931 19.7856C10.4054 19.7932 9.60237 19.2463 9.26094 18.4055C8.91953 17.5646 9.10953 16.5943 9.7389 15.9529C10.3683 15.3101 11.3153 15.1243 12.1317 15.4792C12.9496 15.8357 13.4751 16.6644 13.4632 17.5753C13.4513 18.797 12.4835 19.7825 11.2931 19.7856ZM18.9763 19.7856H18.9778C18.0946 19.778 17.3034 19.2265 16.9724 18.3872C16.6399 17.5494 16.8329 16.5867 17.4593 15.9499C18.0871 15.3132 19.0253 15.1258 19.8387 15.4747C20.6536 15.825 21.1821 16.643 21.1806 17.5479C21.1687 18.7878 20.186 19.7886 18.9777 19.7902L18.9763 19.7856ZM26.7055 19.7856H26.707C25.8208 19.7917 25.0207 19.2479 24.6794 18.4101C24.3379 17.5707 24.522 16.605 25.1469 15.9606C25.7719 15.3178 26.713 15.1243 27.5308 15.4732C28.3487 15.8205 28.8816 16.64 28.8801 17.5479C28.8816 18.7833 27.9094 19.7856 26.707 19.7902L26.7055 19.7856Z" fill="#7B57BA"/>
</svg>
