<svg width="39" height="38" viewBox="0 0 39 38" fill="none" xmlns="http://www.w3.org/2000/svg">
<path d="M19.75 0C9.28725 0 0.75 8.53725 0.75 19C0.75 29.4627 9.28725 38 19.75 38C30.2127 38 38.75 29.4627 38.75 19C38.75 8.53725 30.2127 0 19.75 0ZM19.75 35.2416C10.7758 35.2416 3.50802 27.9309 3.50802 18.9996C3.50802 10.0254 10.8187 2.75763 19.75 2.75763C28.7242 2.75763 35.992 10.0683 35.992 18.9996C35.992 27.9738 28.7246 35.2416 19.75 35.2416Z" fill="#0A78C5"/>
<path d="M19.75 7.48605C13.403 7.48605 8.23605 12.651 8.23605 19C8.23605 25.347 13.401 30.5139 19.75 30.5139C26.097 30.5139 31.2639 25.349 31.2639 19C31.2639 12.6514 26.0974 7.48605 19.75 7.48605ZM19.75 27.7989C14.8912 27.7989 10.9511 23.8588 10.9511 19C10.9511 14.1412 14.8912 10.2011 19.75 10.2011C24.6088 10.2011 28.5489 14.1412 28.5489 19C28.5489 23.8588 24.6088 27.7989 19.75 27.7989Z" fill="#0A78C5"/>
<path d="M19.75 14.9721C17.5168 14.9721 15.7221 16.7667 15.7221 19C15.7221 21.2332 17.5167 23.0279 19.75 23.0279C21.9832 23.0279 23.7779 21.2333 23.7779 19C23.7779 16.7668 21.9833 14.9721 19.75 14.9721Z" fill="#0A78C5"/>
</svg>
