<svg width="56" height="53" viewBox="0 0 56 53" fill="none" xmlns="http://www.w3.org/2000/svg">
<path d="M26.9942 0.835313C27.549 -0.278438 28.4539 -0.278438 29.0064 0.835313L35.9864 14.8893C36.5412 16.0031 38.0054 17.0626 39.2423 17.2388L54.853 19.4979C56.0899 19.6764 56.3718 20.5326 55.476 21.4001L44.1806 32.3386C43.2848 33.2061 42.7255 34.9185 42.937 36.143L45.6017 51.5908C45.8131 52.8152 45.0787 53.3438 43.9737 52.7655L30.0114 45.4687C28.9041 44.8903 27.092 44.8903 25.987 45.4687L12.0247 52.7608C10.9174 53.3392 10.1853 52.8105 10.3967 51.5861L13.0637 36.1383C13.2751 34.9139 12.7158 33.2015 11.82 32.334L0.524657 21.3954C-0.371184 20.528 -0.0915066 19.674 1.14763 19.4933L16.7583 17.2342C17.9952 17.0557 19.4617 15.9962 20.0142 14.8847L26.9942 0.835313Z" fill="#FFB321"/>
</svg>
