<svg width="49" height="113" viewBox="0 0 49 113" fill="none" xmlns="http://www.w3.org/2000/svg">
<path d="M29.2792 8.34282C28.1815 5.65157 28.2851 2.61594 29.553 0C32.114 0.264942 34.2701 2.04309 35.0408 4.5233C36.1428 7.23019 36.0458 10.2895 34.7845 12.9289C32.2058 12.6606 30.0332 10.8534 29.2792 8.34282Z" fill="#D1D1D1"/>
<path d="M38.0013 23.9293C36.9339 21.077 37.113 17.8927 38.4971 15.184C39.5659 12.5153 42.0326 10.6817 44.8713 10.4436C45.9176 13.3104 45.7131 16.4936 44.3135 19.2067C43.2658 21.8609 40.8222 23.6878 38.0013 23.9293Z" fill="#D1D1D1"/>
<path d="M36.7369 23.9534C34.6415 25.4686 31.8497 25.5747 29.6461 24.225C27.287 22.6489 25.8274 20.0107 25.7215 17.1537C27.8081 15.6664 30.561 15.5715 32.7503 16.8998C35.157 18.4367 36.6498 21.0741 36.7369 23.9534Z" fill="#D1D1D1"/>
<path d="M37.6621 43.2658C36.9307 40.0293 37.617 36.6233 39.5312 33.9237C41.0213 31.3542 43.8492 29.8829 46.7797 30.1521C47.5033 33.3908 46.8225 36.7868 44.9105 39.4942C43.3982 42.0447 40.5914 43.5013 37.6621 43.2658Z" fill="#D1D1D1"/>
<path d="M33.0239 34.3657C35.3631 36.4979 36.5561 39.619 36.2553 42.7874C33.7485 44.1497 30.6481 43.6922 28.6364 41.6526C26.2973 39.5204 25.1043 36.3993 25.4051 33.2308C27.9119 31.8686 31.0123 32.3261 33.0239 34.3657Z" fill="#D1D1D1"/>
<path d="M36.5502 62.4839C36.448 58.8636 37.9212 55.3675 40.5707 52.9314C42.7473 50.6308 46.1036 49.9395 48.9921 51.1944C49.1219 54.8236 47.6487 58.3198 44.9716 60.7469C42.7949 63.0475 39.4386 63.7388 36.5502 62.4839Z" fill="#D1D1D1"/>
<path d="M33.5728 51.6172C35.5672 54.6102 36.1416 58.3321 35.1541 61.7989C32.064 62.2446 29.0064 60.7755 27.4077 58.0587C25.4078 55.0757 24.829 51.3381 25.8263 47.8769C28.9243 47.3698 32.0138 48.8633 33.5728 51.6172Z" fill="#D1D1D1"/>
<path d="M36.6501 70.2425C39.1437 68.3252 42.5539 68.1858 45.1926 69.8934C44.9486 73.4436 43.1196 76.686 40.2264 78.7008C37.692 80.6213 34.2342 80.6812 31.6312 78.8618C31.9691 75.3779 33.799 72.2285 36.6501 70.2425Z" fill="#D1D1D1"/>
<path d="M30.3581 78.1446C27.2689 78.1158 24.4756 76.2748 23.2067 73.4209C21.5602 70.1758 21.3954 66.3617 22.7587 62.9818C25.9475 63.0668 28.7859 65.0388 29.9981 68.0189C31.5462 71.1824 31.6758 74.8708 30.3581 78.1446Z" fill="#D1D1D1"/>
<path d="M28.8178 87.4609C32.215 86.7664 35.6885 88.2855 37.5201 91.2657C36.3257 94.8005 33.3638 97.4363 29.7431 98.1693C26.3427 98.8224 22.897 97.3123 21.0408 94.3645C22.2451 90.8353 25.2015 88.2096 28.8178 87.4609Z" fill="#D1D1D1"/>
<path d="M20.0333 92.6885C16.7231 90.9448 14.5458 87.5978 14.2713 83.8406C13.5481 79.8565 14.5412 75.753 17.003 72.5576C20.2867 74.3258 22.4518 77.6593 22.765 81.4055C23.5214 85.3885 22.5249 89.5099 20.0333 92.6885Z" fill="#D1D1D1"/>
<path d="M16.4055 101.248C20.0938 100.487 23.8691 102.098 25.9127 105.297C24.5948 109.138 21.3758 111.991 17.4352 112.808C13.7336 113.581 9.93511 111.977 7.86587 108.777C9.20479 104.922 12.447 102.062 16.4055 101.248Z" fill="#D1D1D1"/>
<path d="M3.45447 84.9115C7.09853 86.8305 9.50742 90.5259 9.80778 94.6738C10.591 99.0809 9.40553 103.604 6.57816 107.048C2.9341 105.129 0.525199 101.433 0.224839 97.2854C-0.532925 92.8795 0.64476 88.3588 3.45447 84.9115Z" fill="#D1D1D1"/>
</svg>
