<svg width="179" height="18" viewBox="0 0 179 18" fill="none" xmlns="http://www.w3.org/2000/svg">
<path d="M6.67969 17.2461C9.82031 17.2461 11.918 15.2773 12.1406 12.6875L12.1523 12.6055H9.39844L9.375 12.7109C9.10547 14.0117 8.16797 14.8906 6.69141 14.8906C4.85156 14.8906 3.65625 13.3906 3.65625 10.8008V10.7891C3.65625 8.24609 4.83984 6.6875 6.67969 6.6875C8.22656 6.6875 9.11719 7.66016 9.36328 8.86719L9.38672 8.97266H12.1406L12.1289 8.87891C11.9531 6.39453 9.91406 4.32031 6.64453 4.32031C3.02344 4.32031 0.679688 6.80469 0.679688 10.7656V10.7773C0.679688 14.7617 2.98828 17.2461 6.67969 17.2461ZM17.5664 17.2109C19.207 17.2109 20.5898 16.3906 21.3047 15.0898H21.375V17H24.293V8.45703C24.293 5.96094 22.2891 4.32031 19.1836 4.32031C16.0312 4.32031 14.1211 5.97266 13.9453 8.17578L13.9336 8.31641H16.6406L16.6641 8.21094C16.8516 7.29688 17.6953 6.65234 19.0781 6.65234C20.5547 6.65234 21.375 7.41406 21.375 8.66797V9.52344L18.1289 9.72266C15.1172 9.91016 13.4062 11.2344 13.4062 13.4375V13.4609C13.4062 15.6758 15.082 17.2109 17.5664 17.2109ZM16.3125 13.3438V13.332C16.3125 12.3477 17.0977 11.7266 18.5391 11.6328L21.375 11.457V12.3945C21.375 13.8711 20.1094 14.9844 18.4336 14.9844C17.1562 14.9844 16.3125 14.3633 16.3125 13.3438ZM26.6484 17H29.5664V9.72266C29.5664 7.97656 30.5625 6.91016 32.2148 6.91016C32.707 6.91016 33.1523 6.98047 33.3984 7.07422V4.4375C33.1758 4.37891 32.8359 4.32031 32.4727 4.32031C31.0078 4.32031 29.918 5.19922 29.543 6.65234H29.4844V4.57812H26.6484V17ZM39.5156 17.2461C40.1016 17.2461 40.6172 17.1875 40.957 17.1406V14.9492C40.7578 14.9609 40.5352 14.9961 40.2539 14.9961C39.1875 14.9961 38.6484 14.6094 38.6484 13.3906V6.82812H40.957V4.57812H38.6484V1.42578H35.6836V4.57812H33.9258V6.82812H35.6836V13.6367C35.6836 16.1914 36.9141 17.2461 39.5156 17.2461ZM48.1875 17.2461C51.4336 17.2461 53.2617 15.3242 53.6484 13.4141L53.6836 13.2852H50.9531L50.9297 13.3672C50.6484 14.1992 49.6992 14.9727 48.2461 14.9727C46.3477 14.9727 45.1523 13.6836 45.1055 11.5039H53.8008V10.5664C53.8008 6.81641 51.5977 4.32031 48.0469 4.32031C44.4961 4.32031 42.2109 6.89844 42.2109 10.8125V10.8242C42.2109 14.7734 44.4609 17.2461 48.1875 17.2461ZM48.082 6.60547C49.6289 6.60547 50.7539 7.58984 50.9648 9.55859H45.1406C45.375 7.64844 46.5352 6.60547 48.082 6.60547ZM62.625 17.2461C65.7656 17.2461 67.7578 14.7852 67.7578 10.7891V10.7773C67.7578 6.76953 65.7539 4.32031 62.6367 4.32031C60.8789 4.32031 59.4609 5.22266 58.7578 6.71094H58.6875V0.0898438H55.7695V17H58.6875V14.8906H58.7578C59.4609 16.3555 60.832 17.2461 62.625 17.2461ZM61.7461 14.7852C59.9414 14.7852 58.6875 13.2266 58.6875 10.7891V10.7773C58.6875 8.35156 59.9531 6.78125 61.7461 6.78125C63.6094 6.78125 64.7812 8.30469 64.7812 10.7773V10.7891C64.7812 13.2617 63.6211 14.7852 61.7461 14.7852ZM73.3008 17.2109C74.9414 17.2109 76.3242 16.3906 77.0391 15.0898H77.1094V17H80.0273V8.45703C80.0273 5.96094 78.0234 4.32031 74.918 4.32031C71.7656 4.32031 69.8555 5.97266 69.6797 8.17578L69.668 8.31641H72.375L72.3984 8.21094C72.5859 7.29688 73.4297 6.65234 74.8125 6.65234C76.2891 6.65234 77.1094 7.41406 77.1094 8.66797V9.52344L73.8633 9.72266C70.8516 9.91016 69.1406 11.2344 69.1406 13.4375V13.4609C69.1406 15.6758 70.8164 17.2109 73.3008 17.2109ZM72.0469 13.3438V13.332C72.0469 12.3477 72.832 11.7266 74.2734 11.6328L77.1094 11.457V12.3945C77.1094 13.8711 75.8438 14.9844 74.168 14.9844C72.8906 14.9844 72.0469 14.3633 72.0469 13.3438ZM87 17.2461C87.5859 17.2461 88.1016 17.1875 88.4414 17.1406V14.9492C88.2422 14.9609 88.0195 14.9961 87.7383 14.9961C86.6719 14.9961 86.1328 14.6094 86.1328 13.3906V6.82812H88.4414V4.57812H86.1328V1.42578H83.168V4.57812H81.4102V6.82812H83.168V13.6367C83.168 16.1914 84.3984 17.2461 87 17.2461ZM95.6719 17.2461C98.918 17.2461 100.746 15.3242 101.133 13.4141L101.168 13.2852H98.4375L98.4141 13.3672C98.1328 14.1992 97.1836 14.9727 95.7305 14.9727C93.832 14.9727 92.6367 13.6836 92.5898 11.5039H101.285V10.5664C101.285 6.81641 99.082 4.32031 95.5312 4.32031C91.9805 4.32031 89.6953 6.89844 89.6953 10.8125V10.8242C89.6953 14.7734 91.9453 17.2461 95.6719 17.2461ZM95.5664 6.60547C97.1133 6.60547 98.2383 7.58984 98.4492 9.55859H92.625C92.8594 7.64844 94.0195 6.60547 95.5664 6.60547ZM106.84 17.2109C108.48 17.2109 109.863 16.3906 110.578 15.0898H110.648V17H113.566V8.45703C113.566 5.96094 111.562 4.32031 108.457 4.32031C105.305 4.32031 103.395 5.97266 103.219 8.17578L103.207 8.31641H105.914L105.938 8.21094C106.125 7.29688 106.969 6.65234 108.352 6.65234C109.828 6.65234 110.648 7.41406 110.648 8.66797V9.52344L107.402 9.72266C104.391 9.91016 102.68 11.2344 102.68 13.4375V13.4609C102.68 15.6758 104.355 17.2109 106.84 17.2109ZM105.586 13.3438V13.332C105.586 12.3477 106.371 11.7266 107.812 11.6328L110.648 11.457V12.3945C110.648 13.8711 109.383 14.9844 107.707 14.9844C106.43 14.9844 105.586 14.3633 105.586 13.3438ZM120.152 17.2461C122.027 17.2461 123.305 16.3789 123.949 15.0547H124.008V17H126.926V4.57812H124.008V11.7734C124.008 13.5781 122.941 14.7852 121.266 14.7852C119.602 14.7852 118.781 13.7891 118.781 12.0312V4.57812H115.863V12.6055C115.863 15.4883 117.422 17.2461 120.152 17.2461Z" fill="black"/>
<path d="M130.91 17.1875C131.859 17.1875 132.598 16.4375 132.598 15.4883C132.598 14.5508 131.859 13.8008 130.91 13.8008C129.961 13.8008 129.211 14.5508 129.211 15.4883C129.211 16.4375 129.961 17.1875 130.91 17.1875ZM139.781 17.2461C142.922 17.2461 145.02 15.2773 145.242 12.6875L145.254 12.6055H142.5L142.477 12.7109C142.207 14.0117 141.27 14.8906 139.793 14.8906C137.953 14.8906 136.758 13.3906 136.758 10.8008V10.7891C136.758 8.24609 137.941 6.6875 139.781 6.6875C141.328 6.6875 142.219 7.66016 142.465 8.86719L142.488 8.97266H145.242L145.23 8.87891C145.055 6.39453 143.016 4.32031 139.746 4.32031C136.125 4.32031 133.781 6.80469 133.781 10.7656V10.7773C133.781 14.7617 136.09 17.2461 139.781 17.2461ZM152.496 17.2461C156.141 17.2461 158.508 14.8203 158.508 10.7891V10.7656C158.508 6.75781 156.105 4.32031 152.484 4.32031C148.875 4.32031 146.484 6.78125 146.484 10.7656V10.7891C146.484 14.8086 148.84 17.2461 152.496 17.2461ZM152.508 14.8906C150.645 14.8906 149.461 13.4023 149.461 10.7891V10.7656C149.461 8.1875 150.668 6.6875 152.484 6.6875C154.336 6.6875 155.531 8.17578 155.531 10.7656V10.7891C155.531 13.3906 154.348 14.8906 152.508 14.8906ZM160.383 17H163.301V9.39453C163.301 7.88281 164.285 6.78125 165.691 6.78125C167.051 6.78125 167.895 7.64844 167.895 9.04297V17H170.73V9.32422C170.73 7.82422 171.691 6.78125 173.098 6.78125C174.527 6.78125 175.324 7.66016 175.324 9.19531V17H178.242V8.46875C178.242 5.98438 176.637 4.32031 174.188 4.32031C172.395 4.32031 170.918 5.28125 170.32 6.82812H170.25C169.793 5.23438 168.539 4.32031 166.805 4.32031C165.164 4.32031 163.887 5.21094 163.359 6.57031H163.301V4.57812H160.383V17Z" fill="#9E9E9E"/>
</svg>
