<svg width="20" height="20" viewBox="0 0 20 20" fill="none" xmlns="http://www.w3.org/2000/svg">
<path fill-rule="evenodd" clip-rule="evenodd" d="M17.8254 3.43676C18.682 3.66741 19.3575 4.34286 19.5881 5.19953C20 6.74813 20 10.0101 20 10.0101C20 10.0101 20 13.2555 19.5881 14.8206C19.3575 15.6773 18.682 16.3527 17.8254 16.5834C16.2603 16.9952 10 16.9952 10 16.9952C10 16.9952 3.7397 16.9952 2.17463 16.5834C1.31796 16.3527 0.642504 15.6773 0.411862 14.8206C0 13.272 0 10.0101 0 10.0101C0 10.0101 0 6.7646 0.411862 5.19953C0.642504 4.34286 1.31796 3.66741 2.17463 3.43676C3.7397 3.0249 10 3.0249 10 3.0249C10 3.0249 16.2603 3.0249 17.8254 3.43676ZM13.196 10.0101L8.0066 13.0084V7.01171L13.196 10.0101Z" fill="white"/>
</svg>
