<svg width="16" height="14" viewBox="0 0 16 14" fill="none" xmlns="http://www.w3.org/2000/svg">
<path d="M0 7C3.14834e-08 7.72026 0.469647 8.20418 1.16344 8.20418H10.7378L12.5524 8.1254L10.2255 10.2637L8.61374 11.9968C8.40027 12.2106 8.26151 12.5032 8.26151 12.8521C8.26151 13.5048 8.73115 14 9.37158 14C9.67045 14 9.94797 13.8762 10.1935 13.6286L15.6478 7.88907C15.8719 7.66399 16 7.32637 16 7C16 6.67363 15.8719 6.33601 15.6478 6.11093L10.1935 0.371383C9.94797 0.123794 9.67045 -1.30638e-08 9.37158 0C8.73115 2.7994e-08 8.26151 0.483923 8.26151 1.14791C8.26151 1.49678 8.40027 1.78939 8.61374 2.00322L10.2255 3.73633L12.5417 5.8746L10.7378 5.79582L1.16344 5.79582C0.469646 5.79582 -3.14834e-08 6.27974 0 7Z" fill="#0065F2"/>
</svg>
