<svg width="30" height="17" viewBox="0 0 30 17" fill="none" xmlns="http://www.w3.org/2000/svg">
<path d="M21.5185 0.200225C18.9064 0.198753 16.4646 1.53203 15.0005 3.75706C13.7309 1.83074 11.7185 0.559284 9.47278 0.264984C7.22851 -0.0293344 4.96995 0.684395 3.2709 2.2222C1.5734 3.76 0.600098 5.97328 0.600098 8.29995C0.600098 10.6266 1.57336 12.8399 3.2709 14.3777C4.96984 15.9155 7.22851 16.6292 9.47278 16.3349C11.7185 16.0406 13.7308 14.7692 15.0005 12.8428C16.5506 15.1959 19.1871 16.5409 21.948 16.3879C24.7075 16.2349 27.188 14.6043 28.4833 12.094C29.7772 9.58195 29.697 6.55796 28.2715 4.12241C26.8459 1.68841 24.2838 0.19917 21.5185 0.200677L21.5185 0.200225ZM8.48237 12.2555C6.92655 12.2555 5.52246 11.2916 4.92705 9.81413C4.33163 8.33517 4.66083 6.63402 5.76147 5.50248C6.86214 4.3723 8.5167 4.03385 9.95358 4.64603C11.392 5.25821 12.3295 6.70036 12.3295 8.29999C12.3252 10.4824 10.605 12.251 8.48237 12.2555ZM21.5185 12.2555C19.9627 12.254 18.5615 11.2887 17.9675 9.81119C17.3721 8.33223 17.7027 6.63255 18.8034 5.50105C19.904 4.37087 21.5586 4.03388 22.9955 4.64607C24.4325 5.25825 25.37 6.7004 25.37 8.30002C25.3671 10.4853 23.6441 12.2555 21.5185 12.2555Z" fill="#E17A25"/>
</svg>
