<svg width="39" height="39" viewBox="0 0 39 39" fill="none" xmlns="http://www.w3.org/2000/svg">
<path d="M32.7324 17.2515C36.6665 17.2515 39.4446 18.9481 38.9411 21.043L36.6481 30.5282C36.1443 32.6212 33.9976 34.3196 31.8581 34.3196H29.9226C29.4725 34.3196 29.0261 34.2418 28.5908 34.1011L31.7321 21.1042C32.0415 19.8336 31.7525 18.5834 30.8968 17.5017C30.8301 17.4202 30.756 17.3368 30.6801 17.2535L32.7324 17.2515Z" fill="#0A78C5"/>
<path d="M30.9396 5.87537C33.5604 5.87537 35.685 7.99801 35.685 10.6133C35.685 13.2323 33.5605 15.3568 30.9396 15.3568C28.3206 15.3568 26.1998 13.2324 26.1998 10.6133C26.1998 7.99616 28.3206 5.87537 30.9396 5.87537Z" fill="#0A78C5"/>
<path d="M21.9585 15.5991C27.354 15.5991 31.162 17.9273 30.4673 20.8002L27.3279 33.7989C26.6333 36.6698 23.6938 39 20.7598 39H18.1019C15.1698 39 12.2469 36.6718 11.5746 33.7989L8.52585 20.8002C7.85164 17.9274 11.682 15.5991 17.0735 15.5991H21.9585Z" fill="#0A78C5"/>
<path d="M25.9998 6.49937C25.9998 10.0889 23.09 12.9987 19.5004 12.9987C15.9109 12.9987 12.9992 10.0889 12.9992 6.49937C12.9992 2.9098 15.9109 0 19.5004 0C23.09 0 25.9998 2.9098 25.9998 6.49937Z" fill="#0A78C5"/>
<path d="M8.06321 5.87537C10.6822 5.87537 12.803 7.99801 12.803 10.6133C12.803 13.2323 10.6822 15.3568 8.06321 15.3568C5.44238 15.3568 3.3216 13.2324 3.3216 10.6133C3.3216 7.99616 5.44053 5.87537 8.06321 5.87537Z" fill="#0A78C5"/>
<path d="M10.3079 34.0952V34.1008C9.87447 34.2416 9.42808 34.3194 8.97986 34.3194H7.04248C4.90506 34.3194 2.76763 32.6209 2.27858 30.5279L0.0559548 21.0446C-0.434897 18.9479 2.35824 17.2532 6.29022 17.2532H8.33135C8.25911 17.3365 8.18502 17.4124 8.11649 17.5014C7.25708 18.583 6.96442 19.824 7.26078 21.0983L10.3079 34.0952Z" fill="#0A78C5"/>
</svg>
