<svg width="24" height="24" viewBox="0 0 24 24" fill="none" xmlns="http://www.w3.org/2000/svg">
<path d="M19.9978 3.47778C18.7643 2.41481 17.3304 1.62514 15.785 1.159C14.8383 0.862881 13.8613 0.682811 12.8728 0.623404C12.3901 0.592329 11.9065 0.592329 11.4229 0.623404C10.7896 0.656308 10.159 0.726684 9.53294 0.83362C8.20679 1.07948 6.93054 1.55383 5.7593 2.23749C4.18377 3.114 2.85754 4.39632 1.91088 5.95729C0.673797 7.95249 0.291714 10.3818 0.852823 12.675C1.30793 14.5807 2.33571 16.2898 3.79198 17.5603C5.61331 19.1972 7.8782 20.2265 10.2829 20.5089C10.5706 20.5253 10.8387 20.6624 11.023 20.8882C11.2083 21.1149 11.2938 21.4092 11.2591 21.7026C11.2591 22.0864 11.1744 22.4675 11.129 22.8487C11.0587 23.132 11.0435 23.4272 11.0836 23.7169C11.0872 23.7992 11.1246 23.8769 11.1869 23.9308C11.2484 23.9838 11.3294 24.0085 11.4096 23.9975C11.6438 23.9665 11.8736 23.9052 12.0936 23.8147C13.067 23.3523 13.9897 22.7865 14.8474 22.1257C16.7524 20.7447 18.5496 19.2155 20.2259 17.5512C20.8101 17.0019 21.3383 16.3932 21.8041 15.736C22.8292 14.2462 23.3867 12.4704 23.4001 10.647C23.401 9.83721 23.2932 9.03199 23.0786 8.25338C22.5451 6.37881 21.4719 4.71342 19.9978 3.47778ZM7.37594 12.4715C6.84335 12.476 6.36152 12.1479 6.15666 11.6434C5.95181 11.1389 6.06581 10.5567 6.44344 10.1719C6.82105 9.78617 7.38928 9.67466 7.87913 9.88763C8.36986 10.1015 8.68516 10.5987 8.67803 11.1453C8.6709 11.8783 8.09022 12.4696 7.37594 12.4715ZM11.9859 12.4715H11.9868C11.4568 12.4669 10.9822 12.136 10.7835 11.6324C10.584 11.1297 10.6998 10.5521 11.0757 10.1701C11.4524 9.78802 12.0153 9.67559 12.5033 9.88489C12.9923 10.0951 13.3094 10.5859 13.3084 11.1288C13.3013 11.8728 12.7117 12.4733 11.9867 12.4742L11.9859 12.4715ZM16.6234 12.4715H16.6243C16.0926 12.4751 15.6125 12.1488 15.4077 11.6461C15.2029 11.1425 15.3133 10.5631 15.6883 10.1765C16.0632 9.79078 16.6279 9.67471 17.1186 9.884C17.6093 10.0924 17.9291 10.5841 17.9282 11.1288C17.9291 11.8701 17.3457 12.4715 16.6243 12.4742L16.6234 12.4715Z" fill="#7B57BA"/>
</svg>
