<svg width="26" height="24" viewBox="0 0 26 24" fill="none" xmlns="http://www.w3.org/2000/svg">
<path d="M2.7624 20.1001H4.3374C4.77269 20.1001 5.1249 20.5312 5.1249 20.8801V22.4401C5.1249 22.8712 4.77268 23.2201 4.3374 23.2201H2.7624C2.32711 23.2201 1.9749 22.789 1.9749 22.4401V20.8801C1.9749 20.449 2.32712 20.1001 2.7624 20.1001Z" fill="#39A256"/>
<path d="M9.0624 20.1001H10.6374C11.0727 20.1001 11.4249 20.5312 11.4249 20.8801V22.4401C11.4249 22.8712 11.0727 23.2201 10.6374 23.2201H9.0624C8.62711 23.2201 8.2749 22.789 8.2749 22.4401V20.8801C8.2749 20.449 8.62712 20.1001 9.0624 20.1001Z" fill="#39A256"/>
<path d="M14.5749 17.7601V20.8801C14.5749 21.7073 14.9071 22.501 15.4978 23.086C16.0884 23.671 16.8898 24.0001 17.7249 24.0001H22.4499C23.2851 24.0001 24.0864 23.671 24.677 23.086C25.2677 22.501 25.5999 21.7073 25.5999 20.8801V11.5201C25.5999 10.6929 25.2677 9.89918 24.677 9.31418C24.0864 8.72918 23.285 8.4001 22.4499 8.4001V3.7201C22.4499 2.89287 22.1177 2.09918 21.527 1.51418C20.9364 0.929179 20.135 0.600098 19.2999 0.600098H6.6999C4.96031 0.600098 3.5499 1.99708 3.5499 3.7201V14.6401H0.399902V17.7601H14.5749ZM22.4499 20.8801H17.7249V11.5201H22.4499V20.8801ZM6.6999 3.7201H19.2999V8.4001H17.7249C15.9853 8.4001 14.5749 9.79708 14.5749 11.5201V14.6401H6.6999V3.7201Z" fill="#39A256"/>
</svg>
