<svg width="24" height="24" viewBox="0 0 24 24" fill="none" xmlns="http://www.w3.org/2000/svg">
<path d="M12 0C5.37276 0 0 5.37276 0 12C0 18.6272 5.37276 24 12 24C18.6272 24 24 18.6272 24 12C24 5.37276 18.6272 0 12 0ZM12 22.7997C11.0505 22.7997 9.82544 21.0301 9.07747 17.9994H14.924C14.1747 21.03 12.9494 22.7997 12 22.7997ZM8.81972 16.8002C8.59022 15.5583 8.44398 14.1498 8.41247 12.6007H15.5886C15.5571 14.1509 15.4098 15.5584 15.1814 16.8002H8.81972ZM1.23058 12.5996H7.21215C7.2414 14.0868 7.37527 15.5031 7.60252 16.8002H2.34007C1.70223 15.5211 1.31384 14.1026 1.23058 12.5996ZM12 1.20035C12.9495 1.20035 14.1746 2.9699 14.9225 6.00058H9.07718C9.8253 2.97005 11.0507 1.20035 12 1.20035ZM15.1803 7.19977C15.4098 8.44173 15.556 9.85018 15.5875 11.3993L8.41253 11.4004C8.44403 9.85018 8.5914 8.44271 8.81977 7.20089L15.1803 7.19977ZM7.21215 11.4004H1.23058C1.31383 9.89744 1.70194 8.47874 2.33981 7.19977H7.60226C7.37502 8.49685 7.24141 9.91319 7.21215 11.4004ZM16.7878 12.5996H22.7694C22.6862 14.1026 22.2981 15.5213 21.6602 16.7991H16.3977C16.625 15.5031 16.7586 14.0868 16.7878 12.5996ZM16.7878 11.4004C16.7586 9.91319 16.6247 8.49688 16.3975 7.19977H21.6599C22.2978 8.47773 22.6859 9.89744 22.7692 11.3993L16.7878 11.4004ZM20.9738 6.00058H16.1523C15.709 4.08927 15.0655 2.50638 14.2882 1.45003C17.0612 2.05075 19.4417 3.71684 20.9738 6.00058ZM9.71191 1.45003C8.93457 2.50526 8.28996 4.08921 7.84783 6.00058H3.02629C4.55849 3.7169 6.93885 2.05078 9.71191 1.45003ZM3.02621 17.9994H7.84775C8.291 19.9107 8.93445 21.4936 9.71183 22.55C6.93879 21.9492 4.55832 20.2832 3.02621 17.9994ZM14.2881 22.55C15.0654 21.4947 15.71 19.9108 16.1522 17.9994H20.9737C19.4415 20.2831 17.0611 21.9492 14.2881 22.55Z" fill="#688FC4"/>
</svg>
